<svg xmlns="http://www.w3.org/2000/svg" width="500" height="50">
    <g>
        <!-- Check icon from check.svg -->
        <g transform="translate(0, 5)">
            <path d="M344.306332 368.899722m45.254834 45.254834l181.019336 181.019336q45.254834 45.254834 0 90.509668l0 0q-45.254834 45.254834-90.509668 0l-181.019336-181.019336q-45.254834-45.254834 0-90.509668l0 0q45.254834-45.254834 90.509668 0Z" />
            <path d="M895.782317 187.249506m45.254834 45.254834l0 0q45.254834 45.254834 0 90.509668l-362.038672 362.038672q-45.254834 45.254834-90.509668 0l0 0q-45.254834-45.254834 0-90.509668l362.038672-362.038672q45.254834-45.254834 90.509668 0Z" />
            <path d="M896 576a64 64 0 0 0-64 64v192H192V192h384a64 64 0 0 0 0-128H192a128 128 0 0 0-128 128v640a128 128 0 0 0 128 128h640a128 128 0 0 0 128-128v-192a64 64 0 0 0-64-64z" />
        </g>
        <!-- Text next to the icon -->
        <text x="50" y="35" font-family="Arial" font-size="30" fill="black">
            Inscripción Práctica
        </text>
    </g>
</svg>
